<svg id="svg439" xmlns="http://www.w3.org/2000/svg" viewBox="0 0 2211.22 581.35"><title>modelis AI Logo 6</title><ellipse id="ellipse80" cx="67.88" cy="265.13" rx="33.35" ry="32.64"/><path d="M292.8,581.35C131.35,581.35,0,451,0,290.68S131.35,0,292.8,0,585.6,130.4,585.6,290.68,454.25,581.35,292.8,581.35Zm0-543.51c-140.58,0-255,113.42-255,252.84S152.22,543.5,292.8,543.5s255-113.41,255-252.82S433.39,37.84,292.8,37.84Z"/><ellipse id="ellipse152" cx="253.78" cy="157.99" rx="34.06" ry="33.35"/><ellipse id="ellipse154" cx="208.37" cy="239.59" rx="34.06" ry="33.35"/><ellipse id="ellipse156" cx="94.13" cy="409.88" rx="31.22" ry="30.51"/><ellipse id="ellipse158" cx="230.36" cy="513.47" rx="28.38" ry="27.67"/><ellipse id="ellipse160" cx="169.34" cy="326.86" rx="33.35" ry="32.64"/><ellipse id="ellipse162" cx="225.4" cy="406.33" rx="28.38" ry="27.67"/><ellipse id="ellipse164" cx="302.03" cy="474.44" rx="28.38" ry="27.67"/><ellipse id="ellipse166" cx="336.08" cy="413.42" rx="21.29" ry="20.58"/><ellipse id="ellipse168" cx="308.41" cy="353.11" rx="21.29" ry="20.58"/><ellipse id="ellipse170" cx="314.8" cy="262.29" rx="21.29" ry="20.58"/><circle id="ellipse172" cx="390.72" cy="460.25" r="14.19"/><circle id="ellipse174" cx="404.91" cy="373.69" r="14.19"/><circle id="ellipse176" cx="419.1" cy="248.1" r="14.19"/><circle id="ellipse178" cx="390.72" cy="133.87" r="14.19"/><circle id="ellipse180" cx="302.03" cy="48.72" r="14.19"/><ellipse id="ellipse182" cx="429.03" cy="82.78" rx="12.06" ry="11.35"/><ellipse id="ellipse184" cx="460.25" cy="155.15" rx="12.06" ry="11.35"/><ellipse id="ellipse186" cx="529.79" cy="197.72" rx="12.06" ry="11.35"/><ellipse id="ellipse188" cx="490.05" cy="241.01" rx="12.06" ry="11.35"/><ellipse id="ellipse190" cx="529.79" cy="279.32" rx="12.06" ry="11.35"/><ellipse id="ellipse192" cx="448.9" cy="413.42" rx="12.06" ry="11.35"/><ellipse id="ellipse194" cx="417.68" cy="505.66" rx="12.06" ry="11.35"/><ellipse id="ellipse196" cx="529.79" cy="364.47" rx="12.06" ry="11.35"/><ellipse id="ellipse198" cx="505.66" cy="416.97" rx="7.8" ry="7.1"/><ellipse id="ellipse200" cx="145.93" cy="115.42" rx="33.35" ry="32.64"/><polygon points="68.95 269.67 66.5 266.5 292.73 54.68 154.49 110.89 152.98 107.17 311.33 42.77 84.64 255.03 241.35 156.29 243.5 159.69 68.95 269.67"/><path d="M229.77,515.5l-.56-.38L84.44,414.56l-.11-.88L65.81,264.79l.26-.54,73.08-149.71,3.62,1.76L71.43,262.44,207,237.79,307.94,45.3l79.89,84.57,1.15-2,40.63-48.95,32.24,77.65,69.95,40-.22,173.07-24.49,48.76-88.53,89.26-.79,0ZM88.21,412.29,231,511.43l185.85-7.74L504,415.78l23.76-47.53v-1.93l-127.23,9.35-70.31,39.77H219.72l-122.9-3.62L100,386.88l.55-.49,73.59-66.33,140.62-64.3L385.73,133.5,308.88,52.15,209.69,241.39,70.11,266.77Zm13.17-4.36,118.4,3.49H329.17l70.63-39.72,123.11-9.05L488.26,242l-99.67-105.5-71,122.36-.58.26L176.14,323.59l-72.3,65.29Zm289.31-275L492,240.45,527.77,365V198.89l-69.11-39.5-.26-.63L428.45,86.62l-36.19,43.57Z"/><polygon points="389.33 466.68 334.21 414.16 312.78 359.87 314.2 257.3 300.02 40.34 304.04 40.08 318.22 257.19 316.81 359.13 337.79 412.27 392.1 463.76 389.33 466.68"/><polygon points="301.04 462 223.92 418.45 177.78 337.51 66.8 266.82 68.96 263.44 181.03 335.09 226.87 415.49 303.01 458.5 301.04 462"/><rect x="148.99" y="285.94" width="79.74" height="3.79" transform="translate(-154.6 311.32) rotate(-60.64)"/><polygon points="143.95 511.88 140.81 509.38 223.82 405.08 313.9 257.27 260.53 158.95 264.06 157.03 318.53 257.38 317.93 258.37 227.11 407.38 143.95 511.88"/><polygon points="231.23 403.89 229.5 400.26 307.93 362.81 416.92 251.71 393.01 134.27 396.94 133.46 421.29 253.01 420.53 253.77 309.99 366.28 231.23 403.89"/><polygon points="400.79 375.95 307.97 355.08 308.85 351.15 399.09 371.44 487.52 250.11 429.03 250.11 315 261.46 314.6 257.45 428.83 246.1 495.43 246.09 400.79 375.95"/><polygon points="447.79 408 397.78 374.66 415.69 244.28 419.68 244.83 402.11 372.72 450.02 404.66 447.79 408"/><rect x="418.27" y="327.85" width="3.78" height="171.14" transform="matrix(0.04, -1, 1, 0.04, -10.32, 816.09)"/><polygon points="419.56 506.38 415.8 504.95 448.27 420.12 386.32 462.18 316.79 482.76 315.65 478.9 384.88 458.41 456.62 409.57 419.56 506.38"/><polygon points="450.86 414.61 446.95 413.65 489.38 241.12 458.36 155.84 462.14 154.47 493.57 240.89 493.43 241.49 450.86 414.61"/><rect x="359.02" y="426.29" width="3.79" height="121.85" transform="translate(-202.51 711.25) rotate(-75.15)"/><path d="M690.5,404.8c-4.75,0-7.84,1.55-7.84,4.37,0,9.17,26,4.25,25.92,19.35,0,7.49-7.56,12.11-18.15,12.11A32.17,32.17,0,0,1,670.76,434l3.5-6.12a27.41,27.41,0,0,0,16.3,6.12c5.64,0,9-1.86,9-5.1,0-9.34-26-4.13-26-19.05,0-7.19,7.08-11.68,17.53-11.68A34.74,34.74,0,0,1,708,402.46l-3.37,6.23A31.8,31.8,0,0,0,690.5,404.8Z"/><path d="M751.91,434.34c7.84,0,12.72-4.2,12.72-11.33V398.45h8.12V423c0,11-7.91,17.68-20.91,17.68s-21-6.71-21-17.68V398.45H739V423C739,430.08,744,434.34,751.91,434.34Z"/><path d="M836.37,412.77c0,9.46-7,15-19,15H806.24v12.65h-8.11V398.45h19.19C829.42,398.45,836.37,403.66,836.37,412.77Zm-7.78.18c0-5.52-4.19-8.15-11.62-8.15H806.24v16.59H817C824.4,421.39,828.59,418.64,828.59,413Z"/><path d="M892.56,398.45v6.35H866.28v11.38H889.8v6.29H866.28V434h27.1v6.35H858.17V398.45Z"/><path d="M947.57,440.39l-8.8-12.71c-.69.06-1.44.06-2.2.06H925.15v12.65H917V398.45h19.53c12.31,0,19.39,5.21,19.39,14.32,0,6.71-3.57,11.44-10,13.6l10.8,14Zm-11-19c7.43,0,11.69-2.75,11.69-8.44,0-5.52-4.26-8.15-11.69-8.15H925.15v16.59Z"/><path d="M1002,404.56c-9.62,0-17.19,6.47-17.19,14.74s7.57,14.8,17.19,14.8a21.46,21.46,0,0,0,13.42-5l4.81,4.68a29.48,29.48,0,0,1-18.64,6.89c-14.1,0-25-9.29-25-21.33s11.07-21.09,25.31-21.09a28.71,28.71,0,0,1,18.29,6.47l-4.74,5.15A20.1,20.1,0,0,0,1002,404.56Z"/><path d="M1050.32,398.45v18.21h25.52V398.45H1084v41.94h-8.11V423h-25.52v17.38h-8.11V398.45Z"/><path d="M1141.45,430.92h-24.28l-4.6,9.47h-8.46l21.25-41.94h8.32l21,41.94h-8.66Zm-3.09-6.29L1129.28,406l-9.08,18.63Z"/><path d="M1205.41,440.39l-8.8-12.71c-.69.06-1.45.06-2.2.06H1183v12.65h-8.11V398.45h19.53c12.31,0,19.39,5.21,19.39,14.32,0,6.71-3.58,11.44-10,13.6l10.8,14Zm-11-19c7.42,0,11.69-2.75,11.69-8.44,0-5.52-4.27-8.15-11.69-8.15H1183v16.59Z"/><path d="M1271.3,419.78h7.08v15.45a35.87,35.87,0,0,1-18.71,5.46c-14.23,0-25.31-9.29-25.31-21.27s11.21-21.15,25.8-21.15a31.5,31.5,0,0,1,18.49,5.87l-4.6,5.21a22.7,22.7,0,0,0-13.89-4.79c-9.84,0-17.54,6.53-17.54,14.86s7.77,14.92,17.6,14.92a24.9,24.9,0,0,0,11.08-2.88Z"/><path d="M1338,398.45v6.35h-26.27v11.38h23.52v6.29h-23.52V434h27.09v6.35h-35.21V398.45Z"/><path d="M1451,426.43v14h-8V426.67l-18-28.22h8.18L1447,418.88l13.48-20.43h8.25Z"/><path d="M1535.6,419.42c0,12-11.15,21.27-25.52,21.27s-25.51-9.29-25.51-21.27,11.14-21.15,25.51-21.15S1535.6,407.43,1535.6,419.42Zm-42.78,0c0,8.32,7.91,14.92,17.33,14.92s17.12-6.6,17.12-14.92-7.7-14.8-17.12-14.8S1492.82,411.09,1492.82,419.42Z"/><path d="M1578.1,434.34c7.84,0,12.72-4.2,12.72-11.33V398.45h8.12V423c0,11-7.91,17.68-20.91,17.68s-21-6.71-21-17.68V398.45h8.11V423C1565.17,430.08,1570.19,434.34,1578.1,434.34Z"/><path d="M1654.85,440.39l-8.8-12.71c-.69.06-1.44.06-2.2.06h-11.42v12.65h-8.11V398.45h19.53c12.31,0,19.39,5.21,19.39,14.32,0,6.71-3.57,11.44-10,13.6l10.8,14Zm-11-19c7.43,0,11.69-2.75,11.69-8.44,0-5.52-4.26-8.15-11.69-8.15h-11.42v16.59Z"/><path d="M1793.64,408.93c0,4.67-3.23,8.21-8.46,9.35,6.46,1,10.32,5,10.32,10.6,0,7.19-6.67,11.51-17.54,11.51h-21.39V398.45h20.91C1787.45,398.45,1793.64,402.4,1793.64,408.93Zm-8.32,1.26c0-3.48-3.1-5.45-8.25-5.39h-12.38v11h12.38C1782.22,415.82,1785.32,413.78,1785.32,410.19Zm1.85,17.79c0-3.71-3.78-6-10.1-5.93h-12.38v12h12.38C1783.39,434.1,1787.17,431.88,1787.17,428Z"/><path d="M1839,434.34c7.84,0,12.72-4.2,12.72-11.33V398.45h8.12V423c0,11-7.91,17.68-20.91,17.68s-21-6.71-21-17.68V398.45H1826V423C1826,430.08,1831.05,434.34,1839,434.34Z"/><path d="M1900.38,404.8c-4.75,0-7.84,1.55-7.84,4.37,0,9.17,26,4.25,25.92,19.35,0,7.49-7.56,12.11-18.15,12.11a32.17,32.17,0,0,1-19.67-6.65l3.51-6.12a27.37,27.37,0,0,0,16.3,6.12c5.64,0,9-1.86,9-5.1,0-9.34-26-4.13-26-19.05,0-7.19,7.08-11.68,17.54-11.68a34.77,34.77,0,0,1,16.85,4.31l-3.37,6.23A31.87,31.87,0,0,0,1900.38,404.8Z"/><path d="M1949.83,398.45v41.94h-8.12V398.45Z"/><path d="M1984.21,398.45,2010,428.58V398.45h8v41.94h-8l-25.65-30.08v30.08h-8.11V398.45Z"/><path d="M2078.85,398.45v6.35h-26.27v11.38h23.52v6.29h-23.52V434h27.09v6.35h-35.21V398.45Z"/><path d="M2118.53,404.8c-4.74,0-7.84,1.55-7.84,4.37,0,9.17,26,4.25,25.93,19.35,0,7.49-7.57,12.11-18.16,12.11a32.19,32.19,0,0,1-19.67-6.65l3.51-6.12a27.37,27.37,0,0,0,16.3,6.12c5.64,0,9-1.86,9-5.1,0-9.34-26-4.13-26-19.05,0-7.19,7.09-11.68,17.54-11.68a34.74,34.74,0,0,1,16.85,4.31l-3.37,6.23A31.84,31.84,0,0,0,2118.53,404.8Z"/><path d="M2175.06,404.8c-4.74,0-7.84,1.55-7.84,4.37,0,9.17,26,4.25,25.93,19.35,0,7.49-7.56,12.11-18.16,12.11a32.16,32.16,0,0,1-19.66-6.65l3.5-6.12a27.37,27.37,0,0,0,16.3,6.12c5.64,0,9-1.86,9-5.1,0-9.34-26-4.13-26-19.05,0-7.19,7.09-11.68,17.54-11.68a34.74,34.74,0,0,1,16.85,4.31l-3.37,6.23A31.84,31.84,0,0,0,2175.06,404.8Z"/><path d="M721.62,314.22c0,31.42,1.7,34,23.22,35.38v9.91H669.53V349.6c21.8-1.41,24.35-4.53,24.35-33.12V280.25c0-21.52-.57-36.52-2-41.62-2-9.62-5.66-11.32-22.93-11.32V217.4l46.14-10.76L718.79,235h1.42c17-19.25,35.1-28.31,57.75-28.31,23.78,0,40.76,10.2,47,28h1.13a73.56,73.56,0,0,1,57.47-28c17.55,0,33.12,6.23,40.76,16.42,6.8,8.78,9.35,21.52,9.35,46.15v45c0,31.14,2,34,23.49,35.38v9.91h-75.3V349.6c21.52-1.13,24.06-4.81,24.06-33.12V280.81c0-43.31-8.77-58.59-33.12-58.59-16.42,0-32.27,10.19-40.48,25.47-4,7.65-4.81,12.74-4.81,30.58v36c0,31.14,1.7,34,23.78,35.38v9.91H776V349.6c21.51-1.41,23.78-4.53,23.78-33.12V280.81c0-43.87-8.21-58.59-32.56-58.59-16.7,0-33.12,10.19-40.76,25.47-4,7.65-4.82,12.74-4.82,30.58Z"/><path d="M1134.37,283.36c0,45.86-36.52,79-79.55,79-42.46,0-78.42-32.83-78.42-79,0-44.73,36-76.72,78.42-76.72C1097.85,206.64,1134.37,238.92,1134.37,283.36Zm-126,.28c0,39.07,18.12,64.27,46.43,64.27,28.87,0,47.56-25.48,47.56-64.27,0-37.65-19-63.41-47.56-63.41C1026.79,220.23,1008.39,245.71,1008.39,283.64Z"/><path d="M1285,335.73h-1.13c-13.59,19-28,26.61-48.7,26.61-42.74,0-73.6-32.55-73.6-78.13,0-44.73,31.14-77.57,73.6-77.57,17.84,0,31.71,6,44.73,19V196.74c0-21.23-.56-36.52-1.7-41.62-2-8.21-9.62-11.32-29.15-11.32v-8.49l58-10.76V287.89c0,26.05.28,43,2,50.11,2.26,9.06,5.38,11.6,22.93,11.6v9.63l-47,3.11Zm-5.66-62.56c0-19.82-1.7-28-7.65-35.67-8.49-11.32-23.49-17.27-36.52-17.27-26.89,0-41.61,24.35-41.61,62.57,0,39.91,14.44,66,41.61,66,13.31,0,29.45-6.52,36.81-17.84,5.37-8.21,7.36-18.68,7.36-39.07Z"/><path d="M1486.81,333.19c-16.42,19.81-35.67,29.15-59.73,29.15-44.17,0-74.17-30.85-74.17-76.15,0-46.42,32-79.55,77.56-79.55,36.24,0,57.47,20.67,57.47,57.47,0,5.1-1.13,5.66-8.78,5.66H1386c-.85,3.12-1.14,7.65-1.14,12.74,0,39.35,19.82,65.11,50.11,65.11,15.57,0,28.88-6.79,43-22.36Zm-46.71-76.44c15.28,0,17-1.13,17-7.93,0-17.26-12.17-28.59-31.14-28.59-20.1,0-33.12,12.46-37.93,36.52Z"/><path d="M1560.41,315.35c0,28.59,3.4,33.41,25.2,34.25v9.91h-78.14V349.6c22.37-1.13,26.61-6.22,26.61-32.27v-122c0-20.38-.56-34.82-1.7-39.63-2-8.78-7.36-11-25.47-11V135l53.5-10.47Z"/><path d="M1657.79,314.5c0,29.16,4,34.26,26.33,35.1v9.91h-81.25V349.6c22.93-1.13,27.18-6.51,27.18-33.12V280.25c0-21.8-.57-36.52-2-41.62-1.7-8.77-7.08-11.32-25.76-11.32V217.4l55.48-10.76Zm-15-182.87a17.55,17.55,0,1,1-17.55,17.55A17.28,17.28,0,0,1,1642.79,131.63Z"/><path d="M1714.12,359.51h-6.23V310.82H1715c7.36,26.9,20.38,39.92,40.2,39.92,15,0,24.63-7.36,24.63-22.37,0-11-5.1-14.43-32.84-31.7-25.48-16.14-38.22-25.2-38.22-46.43,0-25.76,18.4-43.6,42.18-43.6,10.2,0,22.09,3.4,30.29,8.78l5.67-5.94h5.37v40.76h-7.36c-8.2-22.93-17.26-32-31.7-32-12.74,0-21.23,7.08-21.23,19.25,0,12.46,8.49,18.4,27.74,30.29,32.55,20.38,45.29,30,45.29,51.52,0,26.61-19.25,43-47.27,43-14.72,0-27.74-4.53-37.94-12.74Z"/><path d="M2026.37,280.53h-75.59c-13,31.14-17.55,46.71-17.55,54.35,0,10.48,6.51,13.88,22.08,13.88v10.75h-68.79V348.76c17.27-2,24.35-6.8,30.86-22.94L1991,141.53h12.17l64.26,159.67c17.27,42.46,23.5,47.27,43,47.27v11h-92.28v-11c20.1,0,26.32-3.4,26.32-12.17,0-7.36-1.41-12.17-6.51-25.2Zm-69.93-14.15H2021l-31.43-83.51Z"/><path d="M2180.36,306c0,37.37,4.25,41.9,30.86,42.75v10.75H2119.5V348.76c26.61-.85,31.14-5.67,31.14-40.77V193.06c0-32-4-39.64-28.31-40.77V141.53h86.06v10.76c-24.35.85-28,8.49-28,42.75Z"/></svg>